<?xml version="1.0" standalone="no"?>
<!DOCTYPE svg PUBLIC "-//W3C//DTD SVG 20010904//EN"
 "http://www.w3.org/TR/2001/REC-SVG-20010904/DTD/svg10.dtd">
<svg version="1.0" xmlns="http://www.w3.org/2000/svg"
 width="584.000000pt" height="584.000000pt" viewBox="0 0 584.000000 584.000000"
 preserveAspectRatio="xMidYMid meet">
<metadata>
Created by potrace 1.11, written by Peter Selinger 2001-2013
</metadata>
<g transform="translate(0.000000,584.000000) scale(0.100000,-0.100000)"
fill="#000000" stroke="none">
<path d="M2751 5293 l-342 -256 -172 88 c-95 49 -187 97 -205 107 -18 10 -37
18 -42 18 -4 0 -61 -66 -125 -147 -64 -82 -124 -157 -133 -168 -10 -11 -33
-40 -52 -65 -19 -25 -37 -47 -40 -50 -4 -4 -170 -213 -236 -299 -2 -2 -43 6
-91 19 -48 12 -95 23 -103 25 -8 2 -77 19 -153 40 -107 28 -141 34 -152 25 -8
-7 -47 -59 -87 -117 -40 -58 -80 -115 -88 -127 -174 -248 -263 -375 -304 -436
-28 -41 -54 -77 -57 -80 -3 -3 -34 -48 -70 -100 -35 -52 -67 -97 -70 -100 -3
-3 -29 -39 -57 -80 -28 -41 -78 -114 -112 -163 l-60 -87 0 -214 c0 -117 4
-226 10 -242 9 -28 18 -86 19 -132 1 -18 13 -29 55 -48 63 -28 75 -32 171 -44
122 -17 137 -20 179 -39 114 -50 209 -251 231 -485 5 -59 -19 -98 -117 -192
-66 -63 -128 -163 -128 -205 1 -80 300 -484 365 -493 32 -5 132 28 245 80 72
33 118 48 145 47 56 0 133 -41 250 -130 43 -33 124 -103 148 -128 59 -61 69
-107 47 -215 -22 -114 -31 -265 -16 -285 26 -34 208 -126 336 -169 64 -21 165
-43 230 -50 l55 -5 40 54 c22 30 78 108 125 174 47 65 92 121 100 124 23 6
288 1 350 -8 83 -11 144 -41 174 -85 13 -21 44 -80 69 -131 35 -77 132 -239
141 -239 2 0 68 14 147 31 79 17 155 33 169 35 23 4 70 14 95 20 18 4 119 24
150 30 62 10 65 13 66 62 8 371 12 388 103 467 60 53 251 151 318 164 99 18
160 1 278 -79 66 -44 183 -110 196 -110 8 0 244 233 427 421 l29 29 -17 51
c-9 27 -59 114 -111 191 -52 77 -94 146 -94 152 0 6 54 119 121 251 l120 240
246 0 c211 0 246 2 249 15 5 29 14 78 68 345 30 148 52 274 49 278 -8 13 -70
50 -198 117 -66 34 -131 71 -145 82 -54 42 -77 102 -86 216 -5 61 -62 212
-189 497 -7 17 -39 91 -70 165 -31 74 -65 153 -75 175 -10 22 -41 96 -70 165
-57 136 -61 143 -87 145 -10 1 -79 12 -153 25 -74 12 -146 24 -160 26 -14 1
-41 6 -60 9 -19 4 -46 9 -60 11 -80 13 -98 17 -125 30 -16 7 -129 58 -250 113
l-220 100 -90 89 c-49 49 -228 230 -396 401 l-306 311 -342 -257z m-866 -2048
c721 -26 2030 -26 2429 0 l59 4 -6 -117 c-16 -359 -179 -706 -451 -962 -213
-201 -440 -318 -730 -376 -99 -19 -371 -26 -481 -11 -266 36 -518 159 -726
355 -81 76 -209 230 -209 251 0 6 -4 11 -8 11 -17 0 -133 241 -170 355 -37
111 -47 149 -59 230 -2 17 -6 37 -9 45 -3 8 -8 63 -11 123 l-6 107 139 -5 c77
-4 184 -8 239 -10z"/>
</g>
</svg>
